<?xml version="1.0" encoding="utf-8"?>
<!DOCTYPE svg PUBLIC "-//W3C//DTD SVG 1.1 Tiny//EN" "http://www.w3.org/Graphics/SVG/1.1/DTD/svg11-tiny.dtd">
<svg version="1.1" baseProfile="tiny" xmlns="http://www.w3.org/2000/svg" xmlns:xlink="http://www.w3.org/1999/xlink">
  <symbol id="play" viewBox="0 0 36 36">
    <path d="M4,31.5V0L32,15.7L4,31.5z"/>
  </symbol>
  <symbol id="circle" viewBox="0 0 30 30">
    <circle cx="15" cy="15" r="15" />
  </symbol>
  <symbol viewBox="0 0 15 15" id="close">
    <polygon points="15,3 13.5,1.5 12,0 7.5,4.5 3,0 1.5,1.5 0,3 4.5,7.5 0,12 1.5,13.5 3,15 7.5,10.5 12,15 13.5,13.5 15,12 10.5,7.5" />
  </symbol>
  <symbol id="external" viewBox="0 0 36 36">
    <polygon points="14.1,19.7 23.1,10.8 15.1,10.8 15.1,7.9 28,7.9 28,20.8 25.1,20.8 25.1,12.9 16.2,21.8 "/>
    <path d="M36,36H0V0h36V36z M3,33h30V3H3V33z"/>
  </symbol>
  <symbol id="arrow-left" viewBox="0 0 15.022 13.138">
    <polygon points="15.022,5.569 3.829,5.569 7.982,1.414 6.567,0 0,6.57 6.567,13.137 7.981,11.723 3.827,7.569 15.022,7.569 "/>
  </symbol>
  <symbol id="arrow-right" viewBox="0 0 15.022 13.138">
    <polygon points="0,7.568 11.193,7.568 7.04,11.723 8.456,13.137 15.022,6.567 8.455,0 7.041,1.414 11.196,5.568 0,5.568 "/>
  </symbol>
  <symbol id="caret-down" viewBox="-22 7.8 36 36">
    <polygon points="9.5,12.5 -4,26 -17.5,12.5 -22,17 -8.5,30.5 -4,35 0.5,30.5 14,17 "/>
  </symbol>
  <symbol id="caret-up" viewBox="0 0 20 12.5">
    <polygon points="2.5,12.5 10,5 17.5,12.5 20,10 12.5,2.5 10,0 7.5,2.5 0,10 " />
  </symbol>
  <symbol id="circle-arrow-down" viewBox="0 0 42 42">
    <circle cx="21" cy="21" r="18.9"/>
    <polygon fill="#ffffff" points="21,28.514 10.988,18.502 12.48,17.009 21,25.531 29.521,17.009 31.012,18.502"/>
  </symbol>
  <symbol id="circle-arrow-up" viewBox="0 0 42 42">
    <circle cx="21" cy="21" r="18.9"/>
    <polygon fill="#FFFFFF" points="21,13.486 31.013,23.498 29.52,24.991 21,16.469 12.479,24.991 10.988,23.498"/>
  </symbol>
  <symbol id="home" viewBox="0 0 21.65 21.25">
    <polygon points="19.178,11.252 10.825,3.863 2.473,11.252 1.082,9.681 10.825,1.063 20.567,9.681"/>
    <polygon points="17.643,12.189 10.825,6.157 4.007,12.189 4.007,20.188 8.793,20.188 8.793,14.943 12.857,14.943 12.857,20.188 17.643,20.188"/>
  </symbol>
  <symbol id="book" viewBox="0 0 36 36">
    <path d="M7.2,0C4.3,0,2,2.2,2,5.1v26.5C2,34.5,4.2,36,7.1,36H26V7H6.8C5.4,7,4.3,6.3,4.3,5s1.1-2,2.4-2H31v4.8V31h3V0H7.2z"/>
  </symbol>
  <symbol id="chat" viewBox="0 0 36 36">
    <path d="M22.1,1.6h-8.2C6.2,1.6,0,7.9,0,15.5C0,21.2,3.4,26,8.2,28.2V36l6.5-6.5h7.4c7.7,0,13.9-6.2,13.9-13.9 C36,7.9,29.8,1.6,22.1,1.6z M8.2,18.6c-1.8,0-3.3-1.5-3.3-3.3c0-1.8,1.5-3.3,3.3-3.3s3.3,1.5,3.3,3.3C11.5,17.2,10,18.6,8.2,18.6z M18,18.6c-1.8,0-3.3-1.5-3.3-3.3c0-1.8,1.5-3.3,3.3-3.3s3.3,1.5,3.3,3.3C21.3,17.2,19.8,18.6,18,18.6z M27.8,18.6 c-1.8,0-3.3-1.5-3.3-3.3c0-1.8,1.5-3.3,3.3-3.3c1.8,0,3.3,1.5,3.3,3.3C31.1,17.2,29.6,18.6,27.8,18.6z"/>
  </symbol>
  <symbol id="email" viewBox="0 0 36 36">
    <path d="M0,3v30h36V3H0z M33,29H3V13l15,12l15-12V29z M33,8.7L18,20.8L3,8.7V7h30V8.7z"/>
  </symbol>
  <symbol id="open-book" viewBox="0 0 40.8 30.8">
    <path d="M10,25.7c6.8,0,9.6,5.1,9.6,5.1V5.4c0,0-2.8-5.4-9.6-5.4H0v25.7H10z"/>
    <path d="M30.7,25.7c-6.8,0-8.1,5.1-8.1,5.1V5.4c0,0,1.3-5.4,8.1-5.4h10v25.7H30.7z"/>
  </symbol>
  <symbol id="hand" viewBox="0 0 36.7 28.2">
    <path d="M31.5,13.3h-17c-1,0-1.8-0.8-1.8-1.9c0-1,0.8-1.9,1.8-1.9h17c1,0,1.9,0.8,1.9,1.9 C33.3,12.5,32.5,13.3,31.5,13.3z"/>
    <path d="M16.7,25.7H9.5c-2.7,0-4.8-3-4.8-7.5c0-4.4,2.2-7.5,4.8-7.5h7.2c2.7,0,4.8,3,4.8,7.5 C21.5,22.7,19.4,25.7,16.7,25.7z"/>
    <path d="M34.8,18.3H18.5c-1,0-1.8-0.8-1.8-1.9c0-1,0.8-1.9,1.8-1.9h16.3c1,0,1.9,0.8,1.9,1.9 C36.7,17.4,35.9,18.3,34.8,18.3z"/>
    <path d="M33.3,23.3h-17c-1,0-1.9-0.8-1.9-1.9c0-1,0.8-1.9,1.9-1.9h17c1,0,1.9,0.8,1.9,1.9 C35.2,22.4,34.3,23.3,33.3,23.3z"/>
    <path d="M30.7,28.2H16.4c-0.9,0-1.6-1-1.6-1.9c0-0.9,0.7-1.9,1.6-1.9h14.3c0.9,0,1.6,1,1.6,1.9 C32.3,27.3,31.6,28.2,30.7,28.2z"/>
    <path d="M19.9,22.7c1.2-1.5,1.4-3.3,1.4-5.2c0-1.9-0.1-3.7-1.4-5.2V9.6H16h-1.5c-0.6,0-1.2-0.2-1.2-0.8 c0-0.5,0.3-0.7,0.7-0.9c0,0,0,0.1,0,0.1l3.6-3C18.8,4,19,2.3,18.1,1.1c-0.9-1.2-2.7-1.4-3.9-0.5L3.9,9.1c-0.1,0.1,0,0.1-0.1,0.2 L3.7,9.5v0c-2.5,2-3.7,4.8-3.7,8c0,5.9,4.7,10.8,10.6,10.8c0.2,0,0.3,0,0.4,0h8.8V22.7z"/>
  </symbol>
  <symbol id="search" viewBox="0 0 20.793 20.792">
    <path d="M20.663,18.776l-1.888,1.887c-0.173,0.172-0.456,0.172-0.628,0l-5.202-5.203 c-1.311,0.847-2.869,1.346-4.542,1.346C3.769,16.805,0,13.036,0,8.403C0,3.769,3.769,0,8.403,0c4.633,0,8.403,3.769,8.403,8.403 c0,1.673-0.498,3.23-1.345,4.542l5.202,5.202C20.836,18.319,20.836,18.603,20.663,18.776z M14.136,8.403 c0-3.162-2.571-5.733-5.733-5.733c-3.162,0-5.733,2.571-5.733,5.733c0,3.162,2.571,5.733,5.733,5.733 C11.565,14.136,14.136,11.565,14.136,8.403z" />
  </symbol>
  <symbol id="facebook" viewBox="0 0 32 32">
    <path d="M30.233,0H1.765C0.791,0,0,0.79,0,1.766v28.469C0,31.21,0.791,32,1.765,32h15.327V19.608 h-4.17v-4.829h4.17v-3.562c0-4.133,2.524-6.384,6.211-6.384c1.766,0,3.285,0.132,3.727,0.19v4.319l-2.558,0.002 c-2.005,0-2.394,0.952-2.394,2.351v3.083h4.782l-0.622,4.829h-4.16V32h8.154C31.209,32,32,31.21,32,30.235V1.766 C32,0.79,31.209,0,30.233,0z" />
  </symbol>
  <symbol id="google-plus" viewBox="0 0 32 32">
    <path d="M12.625,19.081c-0.149-0.019-0.527,0-1.137,0.056c-0.599,0.085-1.214,0.223-1.843,0.412 c-0.148,0.057-0.355,0.141-0.623,0.256c-0.268,0.123-0.54,0.298-0.817,0.526c-0.268,0.237-0.493,0.53-0.68,0.881 c-0.212,0.369-0.319,0.815-0.319,1.336c0,1.023,0.462,1.866,1.387,2.53c0.877,0.664,2.077,1.004,3.601,1.023 c1.366-0.019,2.409-0.322,3.128-0.909c0.703-0.578,1.054-1.322,1.054-2.231c0-0.739-0.241-1.384-0.721-1.934 c-0.508-0.52-1.302-1.16-2.382-1.918C13.09,19.089,12.873,19.081,12.625,19.081z" />
    <path d="M12.819,6.634c-0.456-0.332-0.982-0.508-1.577-0.528c-0.786,0.02-1.439,0.338-1.961,0.955 C8.843,7.707,8.633,8.428,8.652,9.226c0,1.053,0.306,2.15,0.92,3.289c0.296,0.531,0.68,0.982,1.151,1.352 c0.469,0.37,1.007,0.555,1.611,0.555c0.763-0.028,1.4-0.304,1.908-0.826c0.245-0.37,0.403-0.75,0.473-1.139 c0.042-0.388,0.064-0.716,0.064-0.982c0-1.15-0.294-2.307-0.878-3.474C13.627,7.441,13.267,6.986,12.819,6.634z" />
    <path d="M30.233,0H1.765C0.789,0,0,0.79,0,1.766v28.469C0,31.21,0.789,32,1.765,32h28.468 C31.208,32,32,31.21,32,30.235V1.766C32,0.79,31.208,0,30.233,0z M15.871,6.69c0.218,0.226,0.433,0.507,0.643,0.837 c0.2,0.313,0.377,0.682,0.532,1.108c0.127,0.426,0.191,0.924,0.191,1.491c-0.018,1.044-0.246,1.877-0.687,2.502 c-0.216,0.303-0.445,0.582-0.687,0.839c-0.267,0.255-0.552,0.516-0.855,0.781c-0.173,0.18-0.333,0.384-0.479,0.612 c-0.173,0.236-0.259,0.511-0.259,0.824c0,0.303,0.087,0.554,0.265,0.752c0.15,0.19,0.297,0.355,0.438,0.497l0.984,0.811 c0.612,0.502,1.147,1.056,1.609,1.662c0.434,0.616,0.659,1.422,0.677,2.417c0,1.41-0.62,2.661-1.862,3.751 c-1.286,1.126-3.143,1.709-5.568,1.748c-2.031-0.019-3.547-0.455-4.55-1.305c-1.011-0.794-1.515-1.745-1.515-2.85 c0-0.539,0.163-1.139,0.493-1.802c0.319-0.662,0.897-1.244,1.732-1.744c0.94-0.539,1.926-0.898,2.96-1.079 c1.023-0.151,1.872-0.235,2.55-0.254c-0.209-0.276-0.397-0.572-0.56-0.886c-0.19-0.304-0.285-0.671-0.285-1.1 c0-0.257,0.035-0.472,0.109-0.644c0.062-0.18,0.122-0.348,0.176-0.5c-0.329,0.039-0.639,0.057-0.93,0.057 c-1.545-0.019-2.72-0.506-3.531-1.463c-0.846-0.891-1.27-1.927-1.27-3.112c0-1.429,0.6-2.727,1.801-3.892 c0.823-0.681,1.68-1.127,2.569-1.334c0.88-0.18,1.704-0.272,2.473-0.272h5.799l-1.79,1.05h-1.787 C15.44,6.306,15.644,6.472,15.871,6.69z M27.691,15.849h-3.06v3.059h-1.528v-3.059h-3.06v-1.53h3.06v-3.058h1.528v3.058h3.06 V15.849z" />
  </symbol>
  <symbol id="twitter" viewBox="0 0 36 36">
    <path d="M36,6.8c-1.3,0.6-2.7,1-4.2,1.2c1.5-0.9,2.7-2.4,3.2-4.1c-1.4,0.8-3,1.5-4.7,1.8C29,4.3,27,3.4,24.9,3.4 c-4.1,0-7.4,3.3-7.4,7.4c0,0.6,0.1,1.1,0.2,1.7C11.6,12.1,6.1,9.2,2.5,4.7c-0.6,1.1-1,2.4-1,3.7c0,2.6,1.3,4.8,3.3,6.1 c-1.2,0-2.3-0.4-3.3-0.9c0,0,0,0.1,0,0.1c0,3.6,2.5,6.6,5.9,7.2c-0.6,0.2-1.3,0.3-1.9,0.3c-0.5,0-0.9,0-1.4-0.1 c0.9,2.9,3.7,5.1,6.9,5.1c-2.5,2-5.7,3.2-9.2,3.2c-0.6,0-1.2,0-1.8-0.1c3.3,2.1,7.2,3.3,11.3,3.3c13.6,0,21-11.3,21-21 c0-0.3,0-0.6,0-1C33.8,9.6,35,8.3,36,6.8z"/>
  </symbol>
  <symbol id="youtube" viewBox="0 0 36 36">
    <path d="M35.6,10.8c0,0-0.4-2.5-1.4-3.6c-1.4-1.4-2.9-1.4-3.6-1.5C25.6,5.3,18,5.3,18,5.3h0c0,0-7.6,0-12.6,0.4 C4.7,5.8,3.2,5.8,1.8,7.2c-1.1,1.1-1.4,3.6-1.4,3.6S0,13.7,0,16.6v2.7c0,2.9,0.4,5.8,0.4,5.8s0.4,2.5,1.4,3.6 c1.4,1.4,3.2,1.4,4,1.5C8.6,30.6,18,30.7,18,30.7s7.6,0,12.6-0.4c0.7-0.1,2.2-0.1,3.6-1.5c1.1-1.1,1.4-3.6,1.4-3.6 s0.4-2.9,0.4-5.8v-2.7C36,13.7,35.6,10.8,35.6,10.8z M14.3,22.7l0-10.1l9.7,5.1L14.3,22.7z"/>
  </symbol>
  <symbol id="instagram" viewBox="0 0 36 36">
    <path d="M0,32.3c0-9.6,0-19.1,0-28.7c0-0.1,0.1-0.2,0.1-0.2c0.4-1.7,1.4-2.8,3.1-3.3C3.4,0.1,3.5,0,3.7,0c9.6,0,19.1,0,28.7,0 c0.1,0,0.1,0.1,0.2,0.1c1.8,0.4,2.9,1.4,3.3,3.2c0,0.1,0.1,0.3,0.1,0.4c0,9.6,0,19.1,0,28.7c0,0.1-0.1,0.2-0.1,0.2 c-0.3,1.7-1.6,3-3.2,3.3c-0.1,0-0.2,0.1-0.4,0.1c-9.6,0-19.1,0-28.7,0c-0.1,0-0.1-0.1-0.2-0.1c-1.7-0.3-3-1.5-3.4-3.2 C0.1,32.6,0,32.5,0,32.3z M4.2,15.2c0,0.1,0,0.2,0,0.3c0,4.9,0,9.9,0,14.8c0,0.9,0.6,1.5,1.5,1.5c8.2,0,16.4,0,24.6,0 c1,0,1.5-0.6,1.5-1.6c0-4.9,0-9.8,0-14.7c0-0.1,0-0.2,0-0.4c-1.1,0-2.1,0-3.1,0c0.8,3.4,0.2,6.6-1.9,9.4c-2.1,2.8-5,4.3-8.5,4.4 c-2.9,0.1-5.6-0.8-7.7-2.8c-3.3-3-4.3-6.7-3.4-11C6.2,15.2,5.2,15.2,4.2,15.2z M24.9,18c0-3.8-3.1-6.9-6.9-6.9 c-3.8,0-6.9,3.1-6.9,6.9c0,3.8,3.1,6.9,6.9,7C21.8,24.9,24.9,21.9,24.9,18z M28.4,4.1c-0.7,0-1.3,0-2,0c-0.9,0-1.5,0.6-1.5,1.4 c0,1.4,0,2.7,0,4.1c0,0.9,0.6,1.4,1.4,1.4c1.4,0,2.7,0,4.1,0c0.9,0,1.4-0.6,1.4-1.5c0-1.3,0-2.6,0-4c0-0.9-0.6-1.5-1.5-1.5 C29.7,4.1,29.1,4.1,28.4,4.1z"/>
  </symbol>
  <symbol id="location" viewBox="0 0 36 36">
    <path d="M27,3.7c-5-5-13-5-18,0C4.5,8.2,4.1,15.3,7.8,20.3H7.8L18,36l10.2-15.7h-0.1C31.9,15.3,31.5,8.2,27,3.7z M22.2,17 c-2.3,2.3-6.2,2.3-8.5,0c-2.3-2.3-2.3-6.1,0-8.5c2.3-2.3,6.1-2.3,8.5,0C24.6,10.8,24.6,14.6,22.2,17z"/>
  </symbol>
  <symbol id="globe" viewBox="0 0 36 36">
    <path class="st0" d="M18,0C9.2,0,2,7.2,2,16c0,8.8,7.2,16,16,16s16-7.2,16-16C34,7.2,26.8,0,18,0z M18.4,9.7c2.7,0,5.3-0.3,7.7-0.7 c0.6,2,1,4.2,1,6.5h-8.7V9.7z M18.4,8.8V0.9c3.1,0.2,5.8,3.1,7.4,7.3C23.6,8.6,21,8.8,18.4,8.8z M17.6,8.8c-2.6,0-5.1-0.2-7.4-0.6 c1.5-4.2,4.2-7,7.4-7.3V8.8z M17.6,9.7v5.9H8.9c0-2.3,0.4-4.6,1-6.5C12.2,9.4,14.9,9.7,17.6,9.7z M8,15.6H2.9 c0.1-2.8,0.9-5.4,2.4-7.7c1.1,0.4,2.4,0.7,3.7,1C8.4,10.9,8,13.2,8,15.6z M8,16.4c0,2.4,0.4,4.6,1,6.6c-1.4,0.3-2.6,0.6-3.8,1 c-1.4-2.2-2.3-4.8-2.3-7.6H8z M8.9,16.4h8.7v5.8c-2.7,0-5.3,0.3-7.7,0.7C9.3,21,8.9,18.8,8.9,16.4z M17.6,23.1v7.9 c-3.1-0.3-5.9-3.1-7.4-7.3C12.4,23.4,14.9,23.2,17.6,23.1z M18.4,23.1c2.6,0,5.1,0.2,7.4,0.6c-1.5,4.2-4.3,7.1-7.4,7.3V23.1z M18.4,22.2v-5.8h8.7c0,2.3-0.4,4.5-1,6.5C23.8,22.5,21.2,22.3,18.4,22.2z M28,16.4h5.1c-0.1,2.8-0.9,5.4-2.3,7.6 c-1.1-0.4-2.4-0.7-3.8-1C27.6,21.1,28,18.8,28,16.4z M28,15.6c0-2.4-0.4-4.7-1-6.7c1.4-0.3,2.6-0.6,3.7-1c1.4,2.2,2.3,4.9,2.4,7.7 H28z M30.2,7.1C29.1,7.5,28,7.8,26.7,8c-1-2.8-2.6-5.1-4.5-6.5C25.5,2.4,28.2,4.5,30.2,7.1z M13.8,1.5C11.9,2.9,10.3,5.2,9.3,8 C8,7.8,6.9,7.5,5.8,7.1C7.8,4.5,10.5,2.4,13.8,1.5z M5.8,24.8c1.1-0.4,2.2-0.7,3.5-0.9c1,2.9,2.6,5.2,4.5,6.6 C10.5,29.5,7.7,27.5,5.8,24.8z M22.2,30.5c1.9-1.4,3.5-3.7,4.5-6.6c1.3,0.3,2.5,0.6,3.5,0.9C28.3,27.5,25.5,29.5,22.2,30.5z"/>
  </symbol>
  <!-- github -->
  <symbol id="github" viewBox="0 0 16 16">
    <path  d="M7.999,0.431c-4.285,0-7.76,3.474-7.76,7.761 c0,3.428,2.223,6.337,5.307,7.363c0.388,0.071,0.53-0.168,0.53-0.374c0-0.184-0.007-0.672-0.01-1.32 c-2.159,0.469-2.614-1.04-2.614-1.04c-0.353-0.896-0.862-1.135-0.862-1.135c-0.705-0.481,0.053-0.472,0.053-0.472 c0.779,0.055,1.189,0.8,1.189,0.8c0.692,1.186,1.816,0.843,2.258,0.645c0.071-0.502,0.271-0.843,0.493-1.037 C4.86,11.425,3.049,10.76,3.049,7.786c0-0.847,0.302-1.54,0.799-2.082C3.768,5.507,3.501,4.718,3.924,3.65 c0,0,0.652-0.209,2.134,0.796C6.677,4.273,7.34,4.187,8,4.184c0.659,0.003,1.323,0.089,1.943,0.261 c1.482-1.004,2.132-0.796,2.132-0.796c0.423,1.068,0.157,1.857,0.077,2.054c0.497,0.542,0.798,1.235,0.798,2.082 c0,2.981-1.814,3.637-3.543,3.829c0.279,0.24,0.527,0.713,0.527,1.437c0,1.037-0.01,1.874-0.01,2.129 c0,0.208,0.14,0.449,0.534,0.373c3.081-1.028,5.302-3.935,5.302-7.362C15.76,3.906,12.285,0.431,7.999,0.431z"/>
  </symbol>
</svg>

